<svg id="Layer_1" data-name="Layer 1" xmlns="http://www.w3.org/2000/svg" viewBox="0 0 1024 1024"><title>check</title><path d="M512,963.76c249.49,0,451.76-202.27,451.76-451.76S761.49,60.24,512,60.24,60.24,262.51,60.24,512,262.51,963.76,512,963.76Zm0,60.24C229.23,1024,0,794.77,0,512S229.23,0,512,0s512,229.23,512,512S794.77,1024,512,1024Z"/><path d="M292.35,495.38A30.11,30.11,0,0,0,249.77,538L413.61,701.8a30.11,30.11,0,0,0,42.58,0l319.1-319.1a30.12,30.12,0,0,0-42.59-42.58L434.9,637.89,292.35,495.34Z"/></svg>