<?xml version="1.0" encoding="utf-8"?>
<!-- Generator: Adobe Illustrator 23.0.6, SVG Export Plug-In . SVG Version: 6.00 Build 0)  -->
<svg version="1.1" id="Layer_1" xmlns="http://www.w3.org/2000/svg" xmlns:xlink="http://www.w3.org/1999/xlink" x="0px" y="0px"
	 viewBox="0 0 64 48" style="enable-background:new 0 0 64 48;" xml:space="preserve">
<style type="text/css">
	.st0{fill:#FFFFFF;}
</style>
<g transform="translate(-18 -26)">
	<path class="st0" d="M22,34h56c2.2,0,4-1.8,4-4s-1.8-4-4-4H22c-2.2,0-4,1.8-4,4S19.8,34,22,34z"/>
	<path class="st0" d="M78,46H22c-2.2,0-4,1.8-4,4s1.8,4,4,4h56c2.2,0,4-1.8,4-4S80.2,46,78,46z"/>
	<path class="st0" d="M78,66H22c-2.2,0-4,1.8-4,4s1.8,4,4,4h56c2.2,0,4-1.8,4-4S80.2,66,78,66z"/>
</g>
</svg>
