<svg viewBox="0 0 88 88" xmlns="http://www.w3.org/2000/svg"><path d="m50 6a43.91 43.91 0 0 0 -33.16 15.09 2.18 2.18 0 0 0 -.53.6 44.08 44.08 0 0 0 .06 56.66l.13.15a2 2 0 0 0 .25.25 43.95 43.95 0 0 0 66.78-.37 2.28 2.28 0 0 0 .22-.22 43.94 43.94 0 0 0 .19-56.16 2.35 2.35 0 0 0 -.19-.25l-.13-.15a43.87 43.87 0 0 0 -33.62-15.6zm0 4a39.79 39.79 0 0 1 29.59 13.13 44 44 0 0 0 0 53.78 40 40 0 0 1 -58.93.28 43.91 43.91 0 0 0 9.4-27.19 43.83 43.83 0 0 0 -9.4-27.19 39.91 39.91 0 0 1 29.34-12.81zm-32 15.94a39.71 39.71 0 0 1 8.06 24.06 39.77 39.77 0 0 1 -8 24 40.07 40.07 0 0 1 0-48.09zm64.22.34a40 40 0 0 1 0 47.44 40 40 0 0 1 0-47.44z" fill-rule="evenodd" transform="translate(-6 -6)"/></svg>