<svg viewBox="0 0 57.05 92.05" xmlns="http://www.w3.org/2000/svg"><circle cx="32.22" cy="26.53" r="6.85"/><circle cx="17.07" cy="2.64" r="2.64"/><g transform="translate(-23.32 -3.86)"><path d="m77.79 32-1.44-2s0 0 0 0h-.06l-3.51-5-1.33-1.94c-1-1.53-.11-4.6-.08-4.73a7.93 7.93 0 0 0 -1.25-6.55 8.28 8.28 0 0 0 -5.12-3.53 5.71 5.71 0 0 0 -4.31.82 5.54 5.54 0 0 0 -2.08 2.69s-.27 1-.27 1a8.27 8.27 0 0 0 1.37 6.08 8.17 8.17 0 0 0 5.13 3.52l.47.07a9 9 0 0 1 3.11.75l7.35 10.26a1.21 1.21 0 0 0 .92.51 1.26 1.26 0 0 0 .81-.22 1.25 1.25 0 0 0 .29-1.73zm-12.59-11.62a6 6 0 0 1 -3.81-2.67 6.19 6.19 0 0 1 -1.07-4.55l.2-.71a3.44 3.44 0 0 1 1.3-1.71c2-1.32 4.93-.34 6.64 2.17s1.5 5.64-.45 7a3.69 3.69 0 0 1 -2.81.47z"/><path d="m79.17 32.89a3.1 3.1 0 0 0 -4.36.54l-8.28 10.57-9.66-2.46-11.97-8.54a4.25 4.25 0 0 0 -.46-.27l-7.93-3.83-3.1-15a3.1 3.1 0 0 0 -6.08 1.26l3.4 16.5a3.11 3.11 0 0 0 1.69 2.17l9.08 4.38 1.09.78-18.68 27.54a3.45 3.45 0 0 0 -.45 2.91l7.25 24a3.42 3.42 0 1 0 6.54-2l-6.77-22.44 7.42-10.91 2.68 1-4.82 10.7a3.44 3.44 0 0 0 .16 3.12l12.33 21.29a3.43 3.43 0 0 0 3 1.7 3.31 3.31 0 0 0 1.71-.46 3.41 3.41 0 0 0 1.25-4.66l-11.5-19.78 10.88-24.13.14.1a3 3 0 0 0 1 .49l12.27 3.1a2.84 2.84 0 0 0 .76.1 3.11 3.11 0 0 0 2.45-1.2l9.53-12.21a3.11 3.11 0 0 0 -.57-4.36z"/><path d="m71 15.58-.35-.52-2.5 1.68-1.45-2.16 2.43-1.58-.34-.52-2.44 1.64-1.62-2.38 1.18-.85-.36-.51-1.17.85-1.16-1.74-.51.35 1.16 1.71-2.14 1.55-1.84-2.69-.52.35 1.85 2.71-1.15.83.37.5 1.13-.8 1.54 2.25-2.19 1.45.35.51 2.19-1.47 1.48 2.17-2.12 1.42.35.52 2.12-1.43.76 1.11.51-.35-.75-1.1 2.19-1.48 1.37 2 .52-.35-1.37-2zm-9-2 2.15-1.55 1.61 2.35-2.2 1.48zm3.39 4.95-1.39-2.13 2.2-1.48 1.48 2.17z"/></g></svg>