<?xml version="1.0" encoding="utf-8"?>
<!-- Generator: Adobe Illustrator 23.0.6, SVG Export Plug-In . SVG Version: 6.00 Build 0)  -->
<svg version="1.1" id="Layer_1" xmlns="http://www.w3.org/2000/svg" xmlns:xlink="http://www.w3.org/1999/xlink" x="0px" y="0px"
	 viewBox="0 0 100 125" style="enable-background:new 0 0 100 125;" xml:space="preserve">
<style type="text/css">
	.st0{stroke:#000000;stroke-width:2;stroke-miterlimit:10;}
</style>
<g>
	<path class="st0" d="M46.8,63.3c-2.5-0.6-5-1.6-7.2-3c-2.3-1.4-4.4-3.2-6.2-5.3c-0.2-0.3-0.6-0.4-0.9-0.2c-0.3,0.1-0.6,0.4-0.6,0.8
		l0,12.9c0,0.3,0.2,0.6,0.4,0.7l2,1.2c0.1,0.1,0.3,0.1,0.4,0.1c0.1,0,0.2,0,0.4-0.1l11.8-5.6c0.3-0.2,0.5-0.5,0.5-0.9
		C47.4,63.7,47.1,63.4,46.8,63.3z M34.8,68.7L33.6,68l0-10.2c1.5,1.5,3.3,2.9,5.1,4c1.7,1.1,3.6,1.9,5.5,2.5L34.8,68.7z"/>
	<path class="st0" d="M83.5,27.4C81.9,19.6,77.3,13,70.6,9c-4.3-2.6-9.3-4-14.4-4c-10.6,0-20.7,5.9-26.4,15.3
		c-5.4,8.9-6.2,19.7-2.1,28.9l0.1,20.1c-0.3,0.2-0.5,0.5-0.7,0.8L16.2,88c-0.9,1.4-0.4,3.3,1,4.2l3.8,2.3c0.5,0.3,1,0.4,1.6,0.4
		c1.1,0,2.1-0.5,2.6-1.5L36,75.6c0.2-0.4,0.4-0.8,0.4-1.2L55,65.7c2.4-0.2,4.7-0.6,7-1.3c2,1,4.2,1.5,6.5,1.5c1.3,0,2.7-0.2,3.9-0.5
		c0.4-0.1,0.9-0.3,1.3-0.4c5.7-2.2,9.6-7.7,9.6-13.8c0-2-0.4-4-1.2-5.9C84.3,39.5,84.8,33.3,83.5,27.4z M54.7,64
		c-0.1,0-0.2,0-0.3,0.1l-19.2,9c-0.3,0.2-0.5,0.5-0.5,0.8c0,0.3-0.1,0.6-0.2,0.8L23.8,92.6c-0.4,0.6-1.2,0.8-1.9,0.5l-3.8-2.3
		c-0.6-0.4-0.8-1.2-0.5-1.9l10.8-17.8c0.1-0.2,0.3-0.4,0.5-0.5c0.3-0.2,0.4-0.4,0.4-0.7L29.4,49c0-0.1,0-0.2-0.1-0.3
		c-3.9-8.7-3.2-19,2-27.5c5.4-9,15-14.5,25-14.5c4.8,0,9.4,1.3,13.5,3.8c6.2,3.8,10.6,9.9,12.1,17.3c1.1,5.1,0.8,10.5-0.9,15.5
		c-2.7-4.3-7.4-6.9-12.5-6.9c-0.7,0-1.4,0-2.1,0.1c-0.4,0.1-0.8,0.1-1.2,0.2c-6.1,1.4-10.7,6.5-11.4,12.7c-0.1,0.5-0.1,0.9-0.1,1.4
		c0,0.1,0,0.2,0,0.3c0,5,2.5,9.4,6.3,12.1C58.3,63.6,56.5,63.9,54.7,64z M79.6,44.3c-0.6,0.1-1.2,0.2-1.9,0.2
		c-4.4,0-8.4-2.5-10.4-6.3c0.4,0,0.8-0.1,1.2-0.1C73,38,77.3,40.4,79.6,44.3z M72.3,63.6c-1.2,0.4-2.5,0.6-3.8,0.6
		c-7.2,0-13.1-5.9-13.1-13.1c0-0.2,0-0.4,0-0.6c1.2-0.4,2.5-0.6,3.8-0.6c7.2,0,13.1,5.9,13.1,13.1C72.3,63.2,72.3,63.4,72.3,63.6z
		 M74,63c0-8.1-6.7-14.7-14.8-14.7c-1.2,0-2.4,0.1-3.6,0.4c1-5,4.9-9.1,9.9-10.3c2.2,4.7,7,7.8,12.2,7.8c0.9,0,1.8-0.1,2.7-0.3
		c0.7,1.7,1.1,3.4,1.1,5.2C81.6,56.2,78.6,60.8,74,63z"/>
</g>
</svg>
