<svg id="Layer_1" data-name="Layer 1" xmlns="http://www.w3.org/2000/svg" viewBox="0 0 400 400"><title>icon3</title><path d="M364.73,106.2a117.45,117.45,0,0,0-10.68-11.61A131.56,131.56,0,0,0,261.85,57H14.66a7.74,7.74,0,0,0-7.75,7.74h0a7.75,7.75,0,0,0,7.75,7.74H261.85a116.1,116.1,0,0,1,79.27,31.23,110.08,110.08,0,0,0,0,170.72,116.12,116.12,0,0,1-158.69,0,110.2,110.2,0,0,0,15.49-155,107.08,107.08,0,0,0-10.11-10.76,7.68,7.68,0,1,0-10.56,11.15A94.68,94.68,0,0,1,182,253.58h0a97,97,0,0,1-10.14,9.4,115.84,115.84,0,0,1-26.36-66.8,7.75,7.75,0,0,0-15.48.5v.47a132.29,132.29,0,0,0,69.9,108.37H14.66a7.74,7.74,0,1,0,0,15.48H261.85A131.94,131.94,0,0,0,364.73,106.31ZM179,271l1,1Zm172.73-8a94.67,94.67,0,0,1,0-148.15A116.37,116.37,0,0,1,351.84,263Z"/><path d="M14.66,122h92.88a7.74,7.74,0,0,1,0,15.48H14.66a7.74,7.74,0,1,1,0-15.48Z"/><path d="M64,240.38h49.35a7.74,7.74,0,1,1,0,15.48H64a7.74,7.74,0,1,1,0-15.48Z"/><path d="M14.66,240.38a7.74,7.74,0,1,1-7.75,7.74A7.75,7.75,0,0,1,14.66,240.38Z"/><path d="M34.51,181.2H97.87a7.74,7.74,0,0,1,0,15.48H34.51a7.74,7.74,0,1,1,0-15.48Z"/></svg>