<svg viewBox="0 0 100 68.25" xmlns="http://www.w3.org/2000/svg"><g transform="translate(0 -15.87)"><path d="m92.45 28.62a30.42 30.42 0 0 0 -2.76-3 34 34 0 0 0 -23.82-9.72h-63.87a2 2 0 0 0 -2 2 2 2 0 0 0 2 2h63.87a30 30 0 0 1 20.48 8.07 28.45 28.45 0 0 0 0 44.11 30 30 0 0 1 -41 0 28.47 28.47 0 0 0 4-40.05 27.5 27.5 0 0 0 -2.61-2.78 2 2 0 0 0 -2.81.08 2 2 0 0 0 .08 2.8 24.46 24.46 0 0 1 1.23 34.57 25.13 25.13 0 0 1 -2.62 2.43 29.92 29.92 0 0 1 -6.81-17.26 2 2 0 0 0 -2-1.87 2 2 0 0 0 -2 2v.12a34.18 34.18 0 0 0 18.06 28h-47.87a2 2 0 0 0 -2 2 2 2 0 0 0 2 2h63.87a34 34 0 0 0 23.82-9.71 33.06 33.06 0 0 0 2.76-3 34 34 0 0 0 0-42.76zm-48 42.58.26.25zm44.63-2.06a24.46 24.46 0 0 1 0-38.28 30.07 30.07 0 0 1 .04 38.28z"/><path d="m2 32.71h24a2 2 0 0 1 2 2 2 2 0 0 1 -2 2h-24a2 2 0 0 1 -2-2 2 2 0 0 1 2-2z"/><path d="m14.75 63.29h12.75a2 2 0 0 1 2 2 2 2 0 0 1 -2 2h-12.75a2 2 0 0 1 -2-2 2 2 0 0 1 2-2z"/><path d="m2 63.29a2 2 0 0 1 2 2 2 2 0 0 1 -2 2 2 2 0 0 1 -2-2 2 2 0 0 1 2-2z"/><path d="m7.13 48h16.37a2 2 0 0 1 2 2 2 2 0 0 1 -2 2h-16.37a2 2 0 0 1 -2-2 2 2 0 0 1 2-2z"/></g></svg>