<?xml version="1.0" encoding="utf-8"?>
<!-- Generator: Adobe Illustrator 23.0.6, SVG Export Plug-In . SVG Version: 6.00 Build 0)  -->
<svg version="1.1" id="Layer_1" xmlns="http://www.w3.org/2000/svg" xmlns:xlink="http://www.w3.org/1999/xlink" x="0px" y="0px"
	 viewBox="0 0 400 400" style="enable-background:new 0 0 400 400;" xml:space="preserve">
<style type="text/css">
	.st0{stroke:#000000;stroke-width:7;stroke-miterlimit:10;}
</style>
<title>icon3</title>
<path class="st0" d="M186.5,259.9c-11.1-2.6-21.6-7-31.2-13c-10.1-6.2-19.2-14-26.9-23c-0.8-1.3-2.6-1.7-3.9-0.9c0,0,0,0,0,0
	c-1.5,0.5-2.5,1.9-2.6,3.5v56c0,1.2,0.7,2.4,1.7,3l8.7,5.2c0.5,0.3,1.1,0.5,1.7,0.4c0.6,0,1.2-0.1,1.7-0.4l51.2-24.3
	c1.4-0.8,2.2-2.3,2.2-3.9C189.1,261.6,187.8,260.4,186.5,259.9z M134.5,283.3l-5.2-3v-44.3c6.7,6.6,14.1,12.4,22.1,17.4
	c7.4,4.7,15.5,8.3,23.9,10.8L134.5,283.3z"/>
<path class="st0" d="M345.7,104.2c-6.9-33.8-26.9-62.5-56-79.8C270.9,13,249.3,7,227.3,7c-46,0-89.8,25.6-114.5,66.4
	c-23.4,38.6-26.9,85.5-9.1,125.4l0.4,87.2c-1.2,0.9-2.2,2.1-3,3.5l-47.3,77.7c-3.9,6.1-1.7,14.3,4.3,18.2l16.5,10
	c2.1,1.2,4.5,1.8,6.9,1.7c4.8,0,9.1-2.2,11.3-6.5l46.8-77.2c1-1.6,1.6-3.4,1.7-5.2l80.7-37.7c10.3-0.8,20.5-2.7,30.4-5.6
	c8.8,4.3,18.4,6.6,28.2,6.5c5.7-0.1,11.4-0.8,16.9-2.2c1.7-0.4,3.9-1.3,5.6-1.7c24.7-9.5,41.6-33.4,41.6-59.9
	c0-8.8-1.8-17.5-5.2-25.6C349.2,157.1,351.3,130.1,345.7,104.2z M220.8,263c-0.5-0.1-1,0.1-1.3,0.4l-83.3,39c-1.2,0.7-2.1,2-2.2,3.4
	c0,1.2-0.3,2.4-0.9,3.5L86.8,387c-1.9,2.6-5.3,3.5-8.2,2.2l-16.5-10c-2.6-1.9-3.5-5.3-2.2-8.2l46.8-77.2c0.5-0.9,1.2-1.7,2.2-2.2
	c1.1-0.6,1.8-1.7,1.7-3l0.4-90.7c0.1-0.5-0.1-1-0.4-1.3c-16.9-37.7-13.9-82.4,8.7-119.3c23.4-39,65.1-62.9,108.5-62.9
	c20.7-0.1,40.9,5.6,58.6,16.4c27.2,16.6,46.3,43.8,52.5,75.1c4.8,22.4,3.4,45.6-3.9,67.2c-11.7-18.7-32.2-30-54.2-29.9
	c-3-0.1-6.1,0.1-9.1,0.4c-1.7,0.4-3.5,0.4-5.2,0.9c-26.5,6-46.3,28.1-49.5,55.1c-0.4,2-0.5,4-0.4,6.1v1.3
	c0,20.9,10.2,40.5,27.3,52.5C236.2,261.3,228.6,262.5,220.8,263z M328.8,177.5c-2.7,0.5-5.5,0.8-8.2,0.9
	c-18.9-0.1-36.3-10.6-45.1-27.4c1.7,0,3.5-0.4,5.2-0.4C300.4,150.2,318.8,160.5,328.8,177.5L328.8,177.5z M297.1,261.3
	c-5.3,1.7-10.9,2.6-16.5,2.6c-31.4-0.1-56.7-25.5-56.8-56.9v-2.6c5.3-1.7,10.9-2.6,16.5-2.6c31.3,0.1,56.7,25.5,56.8,56.8
	L297.1,261.3z M304.5,258.7c0-35.1-29.1-63.8-64.2-63.8c-5.3-0.1-10.5,0.5-15.6,1.7c4.5-21.9,21.2-39.3,42.9-44.7
	c9.7,20.5,30.2,33.7,52.9,33.8c3.9,0,7.9-0.4,11.7-1.3c3.1,7.1,4.7,14.8,4.8,22.5C337.5,229.1,324.5,249.1,304.5,258.7L304.5,258.7z
	"/>
</svg>
