<svg id="Layer_1" data-name="Layer 1" xmlns="http://www.w3.org/2000/svg" viewBox="0 0 388.08 388"><defs><style>.cls-1{fill-rule:evenodd;}</style></defs><title>icon1</title><path class="cls-1" d="M198.92,5A193.76,193.76,0,0,0,52.61,71.58a9.73,9.73,0,0,0-2.34,2.65,194.48,194.48,0,0,0,.27,250l.57.66A9.7,9.7,0,0,0,52.22,326c70.08,81,192.54,89.8,273.52,19.72a194.51,194.51,0,0,0,21.12-21.36,9.87,9.87,0,0,0,1-1,193.88,193.88,0,0,0,.84-247.79,12.78,12.78,0,0,0-.84-1.1l-.57-.66A193.54,193.54,0,0,0,198.92,5Zm0,17.65A175.57,175.57,0,0,1,329.48,80.58a194.12,194.12,0,0,0,0,237.29A176.49,176.49,0,0,1,80.17,329.7q-5.58-5.07-10.7-10.6a193.72,193.72,0,0,0,41.47-120,193.35,193.35,0,0,0-41.47-120A176.08,176.08,0,0,1,198.92,22.65ZM57.73,93A175.12,175.12,0,0,1,93.29,199.14,175.5,175.5,0,0,1,58,305,176.79,176.79,0,0,1,58,92.85Zm283.35,1.5a176.48,176.48,0,0,1,0,209.31A176.48,176.48,0,0,1,341.08,94.48Z" transform="translate(-4.92 -5)"/></svg>