<?xml version="1.0" encoding="utf-8"?>
<!-- Generator: Adobe Illustrator 23.0.6, SVG Export Plug-In . SVG Version: 6.00 Build 0)  -->
<svg version="1.1" id="Layer_1" xmlns="http://www.w3.org/2000/svg" xmlns:xlink="http://www.w3.org/1999/xlink" x="0px" y="0px"
	 viewBox="0 0 100 125" style="enable-background:new 0 0 100 125;" xml:space="preserve">
<style type="text/css">
	.st0{fill:#DE642D;}
</style>
<path class="st0" d="M7.8,83.5l12-36.1l-9.2-2C8.1,43,5,39.1,5,32.4c0-11.7,8.7-19.6,19.3-19.6s19.6,7.8,19.6,19.3
	c0,9.8-4.5,17.9-10.1,26.6L15.6,87.2L7.8,83.5z M59.2,83.5l12-36.1l-9.5-2c-2.5-2.5-5.3-6.4-5.3-13.1c0-11.7,8.7-19.6,19.3-19.6
	S95,20.5,95,32c0,9.8-4.2,17.9-10.1,26.6L67.1,87.2L59.2,83.5z"/>
</svg>
